<svg id="Capa_1" enable-background="new 0 0 512 512" height="512" viewBox="0 0 512 512" width="512" xmlns="http://www.w3.org/2000/svg"><g><g><path d="m425.696 189.371c-6.545-58.409-18.765-96.009-19.282-97.581-1.657-5.037-5.852-8.824-11.032-9.958l-84.092-18.402c-8.086-1.77-16.073 3.351-17.843 11.436-.793 3.626 5.992 51.578 5.992 51.578l89.341 19.407c2.607 13.474 5.215 29.556 7.222 47.688 5.643 50.98 7.554 128.99-15.386 211.118-2.226 7.971 2.431 16.238 10.402 18.465 1.348.377 2.704.556 4.04.556 6.555 0 12.575-4.336 14.425-10.958 24.326-87.092 22.243-169.528 16.213-223.349z" fill="#b5adb6"/><g><g><path d="m372.04 76.727c-1.968 21.19-19.861 37.834-41.56 37.834-14.756 0-27.743-7.693-35.176-19.272 1.069 8.672 2.338 18.163 3.187 24.357 9.111 6.244 20.131 9.901 31.989 9.901 28.862 0 52.77-21.679 56.286-49.603z" fill="#a69ca7"/></g></g><path d="m409.484 412.716c-1.848 6.624-7.872 10.96-14.426 10.96-1.339 0-2.687-.18-4.036-.559-7.972-2.218-12.628-10.49-10.4-18.462 22.938-82.121 21.02-160.137 15.385-211.118-2.008-18.133-4.616-34.207-7.223-47.684l-.12-.03c-6.404-37.844-13.917-60.982-14.326-62.211-1.039-3.147-3.067-5.804-5.705-7.633l26.744 5.854c5.185 1.139 9.381 4.925 11.039 9.961.51 1.569 12.738 39.173 19.282 97.577 6.025 53.817 8.113 136.258-16.214 223.345z" fill="#a69ca7"/></g><g><path d="m172.334 186.453v-129.714h117.646c12.658 0 23.563 8.922 26.068 21.33l10.666 52.825c.831 4.117-2.316 7.964-6.517 7.964h-40.434v47.595z" fill="#7a6e79"/><path d="m320.194 138.865h-40.429v47.582h-41.04v-34.357c0-7.304 5.921-13.224 13.224-13.224h27.204c4.209 0 7.352-3.854 6.527-7.978l-10.665-52.815c-2.517-12.415-13.41-21.331-26.08-21.331h41.04c12.656 0 23.563 8.916 26.066 21.331l10.665 52.815c.84 4.123-2.303 7.977-6.512 7.977z" fill="#685e67"/><circle cx="181.042" cy="70.905" fill="#fc9744" r="23.606"/><path d="m204.652 70.905c0 13.04-10.566 23.606-23.606 23.606-4.252 0-8.234-1.123-11.675-3.086 8.234-3.171 14.078-11.163 14.078-20.52s-5.844-17.349-14.078-20.52c3.441-1.962 7.423-3.086 11.675-3.086 13.041 0 23.606 10.566 23.606 23.606z" fill="#fb7722"/></g><g><g><path d="m155.39 138.642-8.17 91.004h157.737l-8.17-91.004c-.462-5.151-4.779-9.097-9.95-9.097h-121.496c-5.172 0-9.488 3.947-9.951 9.097z" fill="#158f5e"/><path d="m304.954 229.651h-32.419l-8.172-91.013c-.46-5.145-4.775-9.091-9.951-9.091h32.429c5.165 0 9.481 3.946 9.951 9.091z" fill="#0f7a4f"/><path d="m299 163.274h-145.821l2.208-24.636c.47-5.145 4.785-9.091 9.951-9.091h121.504c5.165 0 9.481 3.946 9.951 9.091z" fill="#fddd45"/><path d="m299 163.274h-32.429l-2.208-24.636c-.46-5.145-4.775-9.091-9.951-9.091h32.429c5.165 0 9.481 3.946 9.951 9.091z" fill="#f8c52d"/></g><g><g><path d="m163.265 217.195c-28.949 0-54.042 20.211-60.014 48.537-2.182 10.346-3.334 21.721-3.334 34.187 0 51.551 19.699 153.141 50.389 196.736h151.571c30.69-43.594 50.389-145.185 50.389-196.736 0-12.467-1.153-23.841-3.334-34.187-5.973-28.326-31.065-48.537-60.014-48.537z" fill="#158f5e"/><g fill="#0f7a4f"><path d="m162.7 217.193c0 .04-.01.07-.02.11-1.758 7.113-3.077 29.742-3.906 37.844-1.079 10.58-1.788 21.859-2.098 33.678-.12 4.716-3.956 8.492-8.682 8.492h-48.064c.16-11.449 1.289-21.969 3.317-31.58 5.934-28.144 30.741-48.275 59.453-48.544z"/><path d="m265.522 288.345c.14 4.905-3.776 8.971-8.682 8.971h-61.491c-4.905 0-8.822-4.066-8.682-8.971.31-10.6.959-20.7 1.928-30.151 1.069-10.48 3.097-30.151 5.605-41.001h63.789c2.508 10.85 4.526 30.521 5.605 41.001.969 9.45 1.618 19.551 1.928 30.151z"/><path d="m352.259 297.316h-48.074c-4.715 0-8.552-3.776-8.682-8.492-.31-11.819-1.019-23.098-2.098-33.678-.829-8.102-2.148-30.731-3.906-37.844-.01-.04-.02-.07-.02-.11 28.703.26 53.519 20.39 59.453 48.544 2.028 9.611 3.167 20.131 3.327 31.58z"/><path d="m153.969 424.684h-34.297c-9.241-32.429-15.605-67.935-18.293-96.867h47.135c4.666 0 8.492 3.676 8.672 8.332.929 23.817 2.777 51.121 5.425 79.024.489 5.096-3.517 9.511-8.642 9.511z"/><path d="m195.904 327.814h60.38c4.938 0 8.885 4.105 8.678 9.039-1.003 24.018-2.944 51.772-5.706 79.985-.436 4.449-4.176 7.844-8.646 7.844h-49.033c-4.47 0-8.21-3.395-8.646-7.844-2.762-28.212-4.703-55.967-5.706-79.985-.205-4.934 3.741-9.039 8.679-9.039z"/><path d="m350.81 327.817c-2.697 28.932-9.051 64.438-18.302 96.867h-34.297c-5.115 0-9.121-4.416-8.642-9.511 2.658-27.903 4.496-55.207 5.435-79.024.18-4.656 4.006-8.332 8.672-8.332z"/></g></g><g><path d="m176.19 492.717c-3.035-16.712-5.763-34.754-8.15-53.273-.642-4.984-4.881-8.72-9.906-8.72h-41.463c-6.726 0-11.511 6.508-9.547 12.941 6.273 20.546 13.57 39.673 21.731 55.404 1.726 3.328 5.144 5.432 8.893 5.432h28.617c6.237-.001 10.939-5.647 9.825-11.784z" fill="#bcea73"/><path d="m166.367 504.498h-27.913c6.234 0 10.939-5.645 9.821-11.779-3.037-16.714-5.764-34.757-8.142-53.279-.649-4.985-4.885-8.712-9.911-8.712h27.913c5.025 0 9.261 3.726 9.901 8.712 2.388 18.522 5.115 36.565 8.152 53.279 1.118 6.134-3.587 11.779-9.821 11.779z" fill="#99d53b"/><path d="m244.814 496.405c3.245-16.673 6.172-35.151 8.736-54.345.801-5.999-3.848-11.335-9.9-11.335h-35.112c-6.052 0-10.7 5.336-9.9 11.335 2.562 19.195 5.485 37.672 8.728 54.345.914 4.701 5.022 8.097 9.811 8.097h17.827c4.788-.002 8.895-3.397 9.81-8.097z" fill="#bcea73"/><path d="m253.553 442.058c-2.568 19.192-5.495 37.674-8.742 54.348-.909 4.695-5.015 8.092-9.811 8.092h-17.823c-1.828 0-3.557-.49-5.045-1.359 2.418-1.419 4.206-3.826 4.765-6.734 3.247-16.674 6.174-35.156 8.742-54.348.799-5.994-3.846-11.329-9.9-11.329h27.913c6.045.001 10.701 5.335 9.901 11.33z" fill="#99d53b"/><path d="m323.324 499.068c8.161-15.73 15.458-34.857 21.731-55.404 1.964-6.433-2.821-12.941-9.547-12.941h-41.463c-5.025 0-9.264 3.736-9.906 8.72-2.386 18.519-5.11 36.56-8.145 53.272-1.115 6.138 3.588 11.784 9.826 11.784h28.613c3.747.001 7.165-2.103 8.891-5.431z" fill="#bcea73"/><path d="m345.056 443.666c-6.274 20.54-13.567 39.672-21.729 55.397-1.728 3.337-5.145 5.435-8.892 5.435h-27.913c3.746 0 7.163-2.098 8.892-5.435 8.162-15.725 15.455-34.857 21.729-55.397 1.958-6.434-2.817-12.938-9.551-12.938h27.913c6.734.001 11.509 6.504 9.551 12.938z" fill="#99d53b"/><path d="m146.495 197.127h7.743c5.614 0 9.791 5.254 8.443 10.705-1.758 7.112-3.081 14.757-3.907 22.853-1.082 10.581-1.786 21.86-2.095 33.68-.123 4.718-3.961 8.49-8.681 8.49h-55.615c-5.302 0-9.363-4.714-8.596-9.96 1.198-8.19 2.92-15.863 5.103-23.058 7.723-25.367 31.1-42.71 57.605-42.71z" fill="#bcea73"/><path d="m162.68 207.832c-1.758 7.113-3.077 14.756-3.906 22.858-1.079 10.58-1.788 21.859-2.098 33.678-.12 4.716-3.956 8.492-8.682 8.492h-27.913c4.725 0 8.562-3.776 8.682-8.492.31-11.819 1.019-23.098 2.098-33.678.829-8.102 2.148-15.745 3.906-22.858.859-3.467-.52-6.843-3.067-8.852 4.755-1.209 9.721-1.848 14.796-1.848h7.743c5.614 0 9.79 5.245 8.441 10.7z" fill="#99d53b"/><path d="m263.593 233.732c.969 9.456 1.614 19.555 1.926 30.156.144 4.903-3.777 8.966-8.682 8.966h-61.485c-4.905 0-8.826-4.063-8.682-8.966.311-10.601.957-20.7 1.926-30.156 1.272-12.442 3.882-22.858 7.065-31.067 1.296-3.343 4.514-5.538 8.1-5.538h44.669c3.586 0 6.805 2.197 8.1 5.54 3.179 8.208 5.783 18.624 7.063 31.065z" fill="#bcea73"/><path d="m265.522 263.888c.14 4.905-3.776 8.971-8.682 8.971h-27.913c4.905 0 8.822-4.066 8.682-8.971-.31-10.6-.959-20.7-1.928-30.151-1.279-12.448-3.886-22.858-7.063-31.07-1.299-3.347-4.516-5.535-8.102-5.535h27.913c3.587 0 6.803 2.188 8.102 5.535 3.177 8.212 5.784 18.622 7.063 31.07.969 9.451 1.618 19.551 1.928 30.151z" fill="#99d53b"/><path d="m359.794 272.855h-55.609c-4.718 0-8.555-3.769-8.68-8.486-.314-11.821-1.018-23.102-2.1-33.684-.827-8.097-2.149-15.741-3.907-22.853-1.347-5.45 2.829-10.705 8.443-10.705 33.098 0 61.801 23.118 68.624 55.507.701 3.325 1.311 6.743 1.825 10.255.767 5.249-3.291 9.966-8.596 9.966z" fill="#bcea73"/><path d="m359.792 272.859h-27.913c5.305 0 9.361-4.725 8.602-9.97-.52-3.517-1.129-6.933-1.828-10.25-3.417-16.195-12.288-30.071-24.457-39.902-6.784-5.485-14.586-9.701-23.038-12.368 1.578-1.958 4.006-3.237 6.783-3.237 16.554 0 31.999 5.774 44.168 15.605 12.168 9.831 21.04 23.707 24.457 39.902.699 3.317 1.309 6.734 1.828 10.25.759 5.245-3.297 9.97-8.602 9.97z" fill="#99d53b"/><path d="m157.188 311.689c.931 23.821 2.772 51.119 5.427 79.025.485 5.098-3.521 9.508-8.642 9.508h-51.212c-4.109 0-7.655-2.882-8.504-6.903-6.067-28.725-10.09-57.177-11.685-80.671-.341-5.026 3.627-9.294 8.664-9.294h57.276c4.662.002 8.494 3.677 8.676 8.335z" fill="#bcea73"/><path d="m153.969 400.228h-27.913c5.125 0 9.131-4.416 8.642-9.511-2.647-27.903-4.496-55.207-5.425-79.025-.18-4.666-4.006-8.332-8.672-8.332h27.913c4.666 0 8.492 3.666 8.672 8.332.929 23.817 2.777 51.121 5.425 79.025.489 5.095-3.517 9.511-8.642 9.511z" fill="#99d53b"/><path d="m195.904 303.356h60.38c4.938 0 8.885 4.105 8.678 9.039-1.003 24.018-2.944 51.772-5.706 79.985-.436 4.449-4.176 7.844-8.646 7.844h-49.033c-4.47 0-8.21-3.395-8.646-7.844-2.762-28.212-4.703-55.967-5.706-79.985-.205-4.934 3.741-9.039 8.679-9.039z" fill="#bcea73"/><path d="m264.962 312.392c-.999 24.017-2.947 51.771-5.705 79.984-.44 4.456-4.176 7.852-8.652 7.852h-27.913c4.476 0 8.212-3.397 8.652-7.852 2.757-28.213 4.706-55.967 5.705-79.984.21-4.935-3.736-9.031-8.682-9.031h27.913c4.946-.001 8.892 4.095 8.682 9.031z" fill="#99d53b"/><path d="m369.606 312.649c-1.595 23.494-5.618 51.945-11.685 80.671-.849 4.021-4.395 6.903-8.504 6.903h-51.202c-5.121 0-9.127-4.411-8.642-9.508 2.655-27.906 4.496-55.204 5.427-79.025.182-4.659 4.014-8.334 8.676-8.334h57.266c5.038 0 9.006 4.268 8.664 9.293z" fill="#bcea73"/><path d="m369.602 312.651c-1.588 23.488-5.615 51.94-11.679 80.673-.849 4.016-4.396 6.903-8.512 6.903h-27.903c4.106 0 7.653-2.887 8.502-6.903 6.064-28.733 10.09-57.185 11.679-80.673.35-5.025-3.626-9.291-8.662-9.291h27.913c5.036 0 9.012 4.266 8.662 9.291z" fill="#99d53b"/></g></g></g><g><path d="m360.942 295.855c-.106-5.309-.628-10.494-1.148-15.501 4.702 0 9.163-2.041 12.239-5.599 3.082-3.565 4.459-8.286 3.777-12.952-.531-3.629-1.172-7.235-1.907-10.715-6.736-31.973-33.179-56.061-64.936-60.654l-3.957-44.076h15.186c4.261 0 8.252-1.891 10.951-5.189.037-.045.066-.095.103-.141l51.084 11.097c2.555 13.847 4.642 28.031 6.214 42.238 5.57 50.321 7.462 127.302-15.155 208.275-3.334 11.94 3.667 24.369 15.609 27.706 1.978.552 4.016.833 6.057.833 10.042-.001 18.944-6.761 21.648-16.44 11.986-42.915 18.765-88.826 20.148-136.46.12-4.141-3.139-7.594-7.279-7.715-4.162-.115-7.595 3.14-7.715 7.279-1.347 46.417-7.942 91.118-19.601 132.86-.9 3.224-3.862 5.476-7.202 5.476-.677 0-1.357-.094-2.021-.28-3.976-1.11-6.307-5.249-5.197-9.224 23.263-83.285 21.333-162.322 15.617-213.96-1.801-16.271-4.262-32.517-7.313-48.287-.57-2.945-2.84-5.268-5.771-5.904l-56.966-12.375-2.559-12.673c20.458-.132 38.378-11.14 48.257-27.526l14.674 3.211c2.576.563 4.688 2.47 5.511 4.975.507 1.541 12.492 38.408 18.954 96.072 2.025 18.075 3.272 36.592 3.707 55.038.096 4.081 3.435 7.323 7.495 7.323.06 0 .12 0 .18-.002 4.141-.098 7.419-3.534 7.321-7.675-.445-18.884-1.723-37.845-3.797-56.354-6.632-59.189-19.084-97.488-19.611-99.089-2.474-7.523-8.817-13.248-16.553-14.941l-11.843-2.592c1.343-4.833 2.077-9.918 2.077-15.173-.001-31.287-25.456-56.741-56.743-56.741-28.742 0-52.545 21.487-56.23 49.239l-70.901.015c-5.656-5.825-13.562-9.455-22.303-9.455-17.152 0-31.106 13.954-31.106 31.106 0 11.217 5.97 21.065 14.897 26.538v24.626c-8.884.25-16.113 6.994-16.913 15.903l-4.645 51.736c-28.631 1.326-53.129 20.252-61.562 47.95-2.325 7.66-4.125 15.786-5.348 24.151-.682 4.662.694 9.38 3.775 12.944 3.077 3.559 7.539 5.601 12.242 5.601-.52 5.008-1.04 10.193-1.146 15.501-4.464 0-8.772 1.871-11.82 5.132-3.053 3.268-4.63 7.704-4.327 12.17 1.659 24.427 5.86 53.446 11.83 81.712 1.573 7.447 8.236 12.853 15.843 12.853h4.683c1.347 5.516 2.758 10.949 4.225 16.219-3.582 1.057-6.742 3.248-9.046 6.36-3.339 4.511-4.313 10.179-2.673 15.553 6.788 22.231 14.272 41.297 22.247 56.667 3.032 5.847 8.991 9.479 15.55 9.479h28.617c5.2 0 10.093-2.289 13.423-6.279.42-.503.808-1.027 1.166-1.566h21.659c3.168 4.767 8.568 7.845 14.565 7.845h17.827c5.996 0 11.396-3.078 14.565-7.845h21.662c.357.54.746 1.063 1.166 1.566 3.331 3.99 8.224 6.279 13.423 6.279h28.613c6.559 0 12.517-3.632 15.55-9.479 7.975-15.371 15.459-34.436 22.246-56.667 1.641-5.374.667-11.042-2.672-15.553-2.303-3.111-5.462-5.302-9.043-6.359 1.468-5.273 2.877-10.705 4.224-16.22h4.681c7.607 0 14.27-5.406 15.842-12.853 5.97-28.265 10.172-57.284 11.831-81.712.303-4.467-1.274-8.903-4.327-12.17-3.052-3.261-7.36-5.132-11.825-5.132zm-30.465-197.372c-.9 0-1.79-.039-2.676-.095l-4.402-21.804c-.205-1.016-.456-2.013-.748-2.991l40.645 8.895c-7.649 9.729-19.512 15.995-32.819 15.995zm-41.054-34.244c9.053 0 17.48 6.44 19.272 15.314l2.908 14.4c-11.416-5.813-19.812-16.721-22.18-29.714zm.001-15c3.546-19.446 20.599-34.239 41.053-34.239 23.017 0 41.742 18.725 41.742 41.741 0 4.156-.619 8.169-1.755 11.961l-60.637-13.045c-5.643-4.053-13.082-6.418-20.403-6.418zm-108.382 5.56c8.881 0 16.106 7.225 16.106 16.106s-7.225 16.106-16.106 16.106-16.106-7.225-16.106-16.106 7.225-16.106 16.106-16.106zm-15.701 82.246h32.234c4.142 0 7.5-3.358 7.5-7.5s-3.358-7.5-7.5-7.5h-17.741v-20.065c.402.015.803.031 1.208.031 17.152 0 31.106-13.954 31.106-31.106 0-2.289-.256-4.517-.727-6.667h62.825c1.019 7.677 3.572 14.873 7.351 21.269l-9.167 9.167c-5.153-3.383-11.309-5.358-17.92-5.358h-18.472c-4.142 0-7.5 3.358-7.5 7.5s3.358 7.5 7.5 7.5h18.472c9.78 0 17.738 7.951 17.75 17.729h-41.695c-4.142 0-7.5 3.358-7.5 7.5s3.358 7.5 7.5 7.5h56.272c1.298 0 2.364.975 2.48 2.268l1.477 16.457h-129.411l1.477-16.457c.116-1.292 1.183-2.268 2.481-2.268zm119.835 58.801c-3.076 3.929-4.154 8.954-2.959 13.786.005.021.009.043.014.063h-15.501c-.949-3.384-2.01-6.644-3.208-9.737-2.432-6.276-8.356-10.331-15.094-10.331h-44.669c-6.735 0-12.659 4.054-15.092 10.327-1.201 3.097-2.263 6.357-3.212 9.741h-15.507c.005-.021.009-.043.014-.063 1.195-4.833.116-9.857-2.96-13.786-2.236-2.856-5.292-4.815-8.706-5.691l1.74-19.384h132.106l1.74 19.384c-3.414.875-6.47 2.834-8.706 5.691zm-89.12 38.649c1.101-10.758 3.381-20.827 6.596-29.118.177-.456.611-.75 1.107-.75h44.669c.496 0 .93.294 1.107.75 3.207 8.277 5.489 18.347 6.598 29.122.948 9.255 1.584 19.217 1.89 29.609.012.43-.18.721-.343.889-.158.163-.433.357-.842.357h-61.485c-.41 0-.684-.194-.842-.357-.164-.168-.355-.459-.343-.889.303-10.393.939-20.356 1.888-29.613zm-104.567 30.449c-.165-.19-.347-.513-.281-.964 1.116-7.628 2.75-15.018 4.857-21.959 6.81-22.367 27.076-37.394 50.43-37.394h7.742c.487 0 .787.253.953.465.223.284.293.601.209.939-1.863 7.536-3.238 15.575-4.088 23.89-1.102 10.771-1.819 22.293-2.131 34.247-.017.665-.537 1.186-1.183 1.186h-55.614c-.446 0-.732-.223-.894-.41zm10.106 126.826c-5.829-27.601-9.928-55.88-11.54-79.629-.03-.438.158-.738.322-.913.231-.247.52-.373.859-.373h57.276c.638 0 1.157.495 1.182 1.127.959 24.547 2.846 52.018 5.455 79.442.041.433-.143.735-.304.913-.16.176-.441.386-.872.386h-51.212c-.559 0-1.049-.401-1.166-.953zm66.677 104.339c-.277.333-.895.891-1.908.891h-28.617c-.936 0-1.792-.531-2.235-1.386-7.556-14.563-14.693-32.778-21.215-54.139-.326-1.066.1-1.866.383-2.248.277-.375.904-1.003 1.991-1.003h41.463c1.247 0 2.308.937 2.468 2.178 2.487 19.305 5.249 37.357 8.208 53.655.183 1.006-.258 1.717-.538 2.052zm66.731.891h-17.827c-1.19 0-2.22-.853-2.449-2.028-3.089-15.885-6.001-34.021-8.656-53.905-.132-.99.319-1.676.6-1.997.277-.316.887-.846 1.866-.846h35.112c.979 0 1.589.53 1.866.846.281.321.732 1.006.6 1.997-2.652 19.856-5.566 37.992-8.663 53.906-.229 1.174-1.259 2.027-2.449 2.027zm102.878-55.525c-6.521 21.361-13.659 39.576-21.214 54.14-.444.854-1.3 1.386-2.235 1.386h-28.613c-1.013 0-1.63-.558-1.908-.891-.28-.334-.721-1.047-.539-2.052 2.951-16.25 5.711-34.301 8.205-53.655.16-1.242 1.221-2.178 2.468-2.178h41.463c1.087 0 1.714.628 1.991 1.003.283.38.708 1.18.382 2.247zm23.921-130.247c.164.175.352.475.322.913-1.612 23.75-5.711 52.029-11.541 79.629-.116.552-.606.953-1.166.953h-51.202c-.431 0-.711-.21-.872-.386-.161-.177-.345-.479-.304-.912 2.61-27.434 4.496-54.904 5.455-79.442.025-.632.544-1.127 1.182-1.127h57.267c.339-.001.628.125.859.372zm-17.098-15.373h-41.028c-8.727 0-15.83 6.826-16.17 15.541-.948 24.265-2.815 51.447-5.399 78.608-.431 4.53 1.078 9.058 4.139 12.424 3.06 3.364 7.422 5.294 11.969 5.294h31.077c-1.332 5.295-2.731 10.471-4.172 15.501h-31.075c-8.768 0-16.225 6.562-17.345 15.262-2.348 18.227-4.935 35.247-7.692 50.669h-15.206c2.548-14.012 4.959-29.46 7.182-46.103.669-5.01-.854-10.062-4.181-13.862-3.319-3.792-8.113-5.967-13.153-5.967h-35.112c-5.04 0-9.833 2.175-13.153 5.966-3.326 3.8-4.85 8.852-4.181 13.861 2.224 16.662 4.633 32.11 7.175 46.104h-15.205c-2.764-15.466-5.353-32.487-7.695-50.67-1.122-8.7-8.579-15.261-17.345-15.261h-31.072c-1.439-5.025-2.837-10.203-4.17-15.501h31.081c4.547 0 8.91-1.93 11.969-5.294 3.061-3.366 4.569-7.895 4.139-12.425-2.583-27.152-4.45-54.334-5.399-78.607-.34-8.715-7.443-15.541-16.17-15.541h-41.034c.116-5.341.463-10.526 1.031-15.501h39.488c8.84 0 15.946-6.938 16.178-15.793.303-11.577.995-22.717 2.058-33.114.233-2.281.523-4.527.84-6.752h15.137c-.424 2.697-.788 5.451-1.077 8.272-.985 9.616-1.646 19.945-1.961 30.701-.13 4.423 1.495 8.607 4.575 11.779 3.073 3.165 7.194 4.907 11.604 4.907h61.485c4.41 0 8.53-1.743 11.604-4.907 3.081-3.172 4.706-7.356 4.575-11.779-.316-10.755-.976-21.084-1.961-30.701 0-.001 0-.002 0-.003-.29-2.821-.656-5.574-1.08-8.27h15.13c.317 2.226.607 4.472.84 6.753 1.061 10.373 1.755 21.516 2.064 33.12.235 8.852 7.341 15.787 16.178 15.787h39.487c.568 4.976.915 10.16 1.031 15.502zm14.522-41.673c.67 3.177 1.256 6.471 1.742 9.791.067.457-.117.781-.282.972-.234.271-.535.409-.892.409h-55.609c-.646 0-1.165-.52-1.183-1.185-.319-11.98-1.038-23.502-2.137-34.247-.849-8.316-2.225-16.354-4.088-23.892-.084-.339-.014-.655.209-.939.167-.212.466-.465.953-.465 29.464.001 55.238 20.841 61.287 49.556zm-56.917-122.824c-2.869-5.469-8.511-9.138-15.047-9.293-.001-6.022-1.642-11.666-4.49-16.519l8.165-8.165c6.684 6.505 14.958 11.374 24.18 13.971l4.039 20.005h-16.847z"/><path d="m256.284 295.855h-60.38c-4.389 0-8.648 1.816-11.685 4.982-3.079 3.21-4.672 7.425-4.487 11.87.289 6.897.661 14.214 1.107 21.748.245 4.134 3.788 7.277 7.93 7.043 4.135-.245 7.289-3.795 7.043-7.93-.441-7.447-.809-14.676-1.093-21.487-.018-.413.167-.696.325-.861.16-.167.439-.365.86-.365h60.38c.421 0 .7.199.86.365.158.165.342.447.325.861-1.028 24.63-2.991 52.144-5.677 79.566-.06.613-.568 1.075-1.181 1.075h-49.033c-.614 0-1.122-.462-1.182-1.075-.816-8.336-1.581-16.864-2.273-25.345-.337-4.128-3.951-7.202-8.085-6.865-4.128.337-7.202 3.957-6.865 8.085.698 8.562 1.47 17.171 2.294 25.587.815 8.331 7.742 14.613 16.11 14.613h49.033c8.369 0 15.294-6.282 16.11-14.613 2.712-27.695 4.695-55.498 5.735-80.402.186-4.444-1.407-8.659-4.486-11.87-3.036-3.165-7.295-4.982-11.685-4.982z"/></g></g></svg>