<svg height="480pt" viewBox="0 -68 480 480" width="480pt" xmlns="http://www.w3.org/2000/svg"><path d="m425.601562 272.117188h-371.203124l-46.398438-56 46.398438-56h371.203124l46.398438 56zm0 0" fill="#e97424"/><path d="m240 8.117188c-83.949219 0-152 68.054687-152 152h304c0-83.945313-68.050781-152-152-152zm0 0" fill="#32b1cc"/><g fill="#fcf05a"><path d="m176 216.117188c0 13.253906-10.746094 24-24 24s-24-10.746094-24-24c0-13.253907 10.746094-24 24-24s24 10.746093 24 24zm0 0"/><path d="m352 216.117188c0 13.253906-10.746094 24-24 24s-24-10.746094-24-24c0-13.253907 10.746094-24 24-24s24 10.746093 24 24zm0 0"/><path d="m264 216.117188c0 13.253906-10.746094 24-24 24s-24-10.746094-24-24c0-13.253907 10.746094-24 24-24s24 10.746093 24 24zm0 0"/><path d="m96 224.117188h-88c-4.417969 0-8-3.582032-8-8 0-4.417969 3.582031-8 8-8h88c4.417969 0 8 3.582031 8 8 0 4.417968-3.582031 8-8 8zm0 0"/><path d="m472 224.117188h-88c-4.417969 0-8-3.582032-8-8 0-4.417969 3.582031-8 8-8h88c4.417969 0 8 3.582031 8 8 0 4.417968-3.582031 8-8 8zm0 0"/></g><path d="m88 272.117188h304v32h-304zm0 0" fill="#195c85"/><path d="m352 136.117188c-3.535156 0-6.648438-2.316407-7.664062-5.703126-22.121094-73.71875-94.097657-82.023437-97.136719-82.296874-4.394531-.441407-7.601563-4.363282-7.160157-8.757813.441407-4.398437 4.363282-7.601563 8.761719-7.160156.847657.085937 85.597657 9.503906 110.863281 93.664062 1.269532 4.230469-1.136718 8.691407-5.367187 9.957031-.75.207032-1.519531.308594-2.296875.296876zm0 0" fill="#195c85"/><path d="m104 304.117188h64c0 17.675781-14.328125 32-32 32s-32-14.324219-32-32zm0 0" fill="#d9176c"/><path d="m208 304.117188h64c0 17.675781-14.328125 32-32 32s-32-14.324219-32-32zm0 0" fill="#d9176c"/><path d="m312 304.117188h64c0 17.675781-14.328125 32-32 32s-32-14.324219-32-32zm0 0" fill="#d9176c"/><path d="m136 136.117188h-8c-4.417969 0-8-3.582032-8-8 0-4.417969 3.582031-8 8-8h8c4.417969 0 8 3.582031 8 8 0 4.417968-3.582031 8-8 8zm0 0" fill="#195c85"/><path d="m176 136.117188h-8c-4.417969 0-8-3.582032-8-8 0-4.417969 3.582031-8 8-8h8c4.417969 0 8 3.582031 8 8 0 4.417968-3.582031 8-8 8zm0 0" fill="#195c85"/><path d="m480 216.183594v-.128906c-.015625-.96875-.210938-1.925782-.566406-2.824219-.359375-.769531-.773438-1.511719-1.25-2.214844l-46.398438-56c-1.527344-1.84375-3.792968-2.90625-6.183594-2.898437h-26.007812c-4.09375-85.167969-74.335938-152.117188-159.601562-152.117188-85.265626 0-155.507813 66.949219-159.601563 152.117188h-25.992187c-2.382813 0-4.644532 1.058593-6.167969 2.898437l-46.398438 56c-.472656.703125-.890625 1.445313-1.246093 2.214844-.367188.898437-.5625005 1.855469-.585938 2.824219v.128906c.015625.964844.210938 1.921875.566406 2.824218.359375.769532.773438 1.511719 1.25 2.214844l46.398438 56c1.527344 1.839844 3.792968 2.902344 6.183594 2.894532h25.601562v24c0 4.417968 3.582031 8 8 8h8.800781c3.785157 18.644531 20.175781 32.039062 39.199219 32.039062s35.414062-13.394531 39.199219-32.039062h25.601562c3.785157 18.644531 20.175781 32.039062 39.199219 32.039062s35.414062-13.394531 39.199219-32.039062h25.601562c3.785157 18.644531 20.175781 32.039062 39.199219 32.039062s35.414062-13.394531 39.199219-32.039062h8.800781c4.417969 0 8-3.582032 8-8v-24h25.601562c2.382813.003906 4.644532-1.058594 6.167969-2.894532l46.398438-56c.472656-.703125.890625-1.445312 1.246093-2.214844.367188-.898437.5625-1.855468.585938-2.824218zm-240-200.066406c76.386719.089843 139.449219 59.738281 143.785156 136h-287.570312c4.335937-76.261719 67.398437-135.910157 143.785156-136zm-104 312c-10.167969-.011719-19.230469-6.417969-22.632812-16h45.265624c-3.402343 9.582031-12.464843 15.988281-22.632812 16zm104 0c-10.167969-.011719-19.230469-6.417969-22.632812-16h45.265624c-3.402343 9.582031-12.464843 15.988281-22.632812 16zm104 0c-10.167969-.011719-19.230469-6.417969-22.632812-16h45.265624c-3.402343 9.582031-12.464843 15.988281-22.632812 16zm40-32h-288v-16h288zm37.839844-32h-363.679688l-33.144531-40h70.984375c4.417969 0 8-3.582032 8-8 0-4.417969-3.582031-8-8-8h-70.984375l33.144531-40h363.679688l33.144531 40h-70.984375c-4.417969 0-8 3.582031-8 8 0 4.417968 3.582031 8 8 8h70.984375zm0 0"/><path d="m152 184.117188c-17.671875 0-32 14.328124-32 32 0 17.675781 14.328125 32 32 32s32-14.324219 32-32c0-17.671876-14.328125-32-32-32zm0 48c-8.835938 0-16-7.164063-16-16 0-8.835938 7.164062-16 16-16s16 7.164062 16 16c0 8.835937-7.164062 16-16 16zm0 0"/><path d="m328 184.117188c-17.671875 0-32 14.328124-32 32 0 17.675781 14.328125 32 32 32s32-14.324219 32-32c0-17.671876-14.328125-32-32-32zm0 48c-8.835938 0-16-7.164063-16-16 0-8.835938 7.164062-16 16-16s16 7.164062 16 16c0 8.835937-7.164062 16-16 16zm0 0"/><path d="m240 184.117188c-17.671875 0-32 14.328124-32 32 0 17.675781 14.328125 32 32 32s32-14.324219 32-32c0-17.671876-14.328125-32-32-32zm0 48c-8.835938 0-16-7.164063-16-16 0-8.835938 7.164062-16 16-16s16 7.164062 16 16c0 8.835937-7.164062 16-16 16zm0 0"/><path d="m359.664062 125.820312c-25.265624-84.160156-110.015624-93.574218-110.863281-93.664062-4.40625-.441406-8.339843 2.773438-8.78125 7.183594-.441406 4.40625 2.773438 8.335937 7.179688 8.777344 3.058593.3125 75.03125 8.617187 97.152343 82.335937 1.027344 3.363281 4.132813 5.664063 7.648438 5.664063.777344 0 1.550781-.113282 2.296875-.335938 4.230469-1.265625 6.636719-5.726562 5.367187-9.960938zm0 0"/><path d="m136 120.117188h-8c-4.417969 0-8 3.582031-8 8 0 4.417968 3.582031 8 8 8h8c4.417969 0 8-3.582032 8-8 0-4.417969-3.582031-8-8-8zm0 0"/><path d="m176 120.117188h-8c-4.417969 0-8 3.582031-8 8 0 4.417968 3.582031 8 8 8h8c4.417969 0 8-3.582032 8-8 0-4.417969-3.582031-8-8-8zm0 0"/></svg>